<svg xmlns="http://www.w3.org/2000/svg" viewBox="0 0 32 32" role="img" aria-labelledby="favTitle favDesc" width="32" height="32"><metadata><rdf:RDF xmlns:rdf="http://www.w3.org/1999/02/22-rdf-syntax-ns#" xmlns:dc="http://purl.org/dc/elements/1.1/"><rdf:Description><dc:creator>RealFaviconGenerator</dc:creator><dc:source>https://realfavicongenerator.net</dc:source></rdf:Description></rdf:RDF></metadata><title id="favTitle">leadforms favicon</title><desc id="favDesc">leadforms favicon: midnight rounded square with acid lime ticket-stub mark</desc><rect width="32" height="32" rx="7" fill="#0E1B2E"></rect><path d="M7 10 L25 10 Q28 10 28 12 L28 14.5 Q25.5 14.5 25.5 16 Q25.5 17.5 28 17.5 L28 20 Q28 22 25 22 L7 22 Q4 22 4 20 L4 17.5 Q6.5 17.5 6.5 16 Q6.5 14.5 4 14.5 L4 12 Q4 10 7 10 Z" fill="#D4F542"></path><circle cx="11" cy="16" r="1.6" fill="#0E1B2E"></circle><circle cx="16" cy="16" r="1.6" fill="#0E1B2E"></circle><circle cx="21" cy="16" r="1.6" fill="#0E1B2E"></circle></svg>